<svg width="24" height="24" viewBox="0 0 24 24" fill="none" xmlns="http://www.w3.org/2000/svg">
<path d="M7 18C5.9 18 5.01 18.9 5.01 20C5.01 21.1 5.9 22 7 22C8.1 22 9 21.1 9 20C9 18.9 8.1 18 7 18ZM17 18C15.9 18 15.01 18.9 15.01 20C15.01 21.1 15.9 22 17 22C18.1 22 19 21.1 19 20C19 18.9 18.1 18 17 18ZM19 16C19 15.45 18.55 15 18 15H7L8.1 13H15.55C16.3 13 16.96 12.59 17.3 11.97L20.54 5.83001C20.6617 5.59868 20.6879 5.32891 20.6132 5.07846C20.5384 4.82801 20.3686 4.61678 20.14 4.49001C20.024 4.42649 19.8966 4.3867 19.7651 4.37296C19.6336 4.35921 19.5007 4.37179 19.3741 4.40996C19.2475 4.44812 19.1297 4.51111 19.0278 4.59524C18.9258 4.67938 18.8415 4.78298 18.78 4.90001L15.55 11H8.53L4.54 2.57001C4.45993 2.39909 4.33266 2.25462 4.17321 2.15363C4.01375 2.05264 3.82875 1.99934 3.64 2.00001H2C1.45 2.00001 1 2.45001 1 3.00001C1 3.55001 1.45 4.00001 2 4.00001H3L6.6 11.59L5.25 14.03C4.52 15.37 5.48 17 7 17H18C18.55 17 19 16.55 19 16ZM11.29 2.71001C11.3825 2.6173 11.4924 2.54376 11.6134 2.49357C11.7343 2.44339 11.864 2.41756 11.995 2.41756C12.126 2.41756 12.2557 2.44339 12.3766 2.49357C12.4976 2.54376 12.6075 2.6173 12.7 2.71001L15.29 5.30001C15.68 5.69001 15.68 6.32001 15.29 6.71001L12.7 9.30001C12.6074 9.39259 12.4975 9.46603 12.3765 9.51613C12.2556 9.56624 12.1259 9.59203 11.995 9.59203C11.8641 9.59203 11.7344 9.56624 11.6135 9.51613C11.4925 9.46603 11.3826 9.39259 11.29 9.30001C11.1974 9.20742 11.124 9.09751 11.0739 8.97655C11.0238 8.85559 10.998 8.72594 10.998 8.59501C10.998 8.46408 11.0238 8.33443 11.0739 8.21346C11.124 8.0925 11.1974 7.98259 11.29 7.89001L12.17 7.00001H9C8.45 7.00001 8 6.55001 8 6.00001C8 5.45001 8.45 5.00001 9 5.00001H12.17L11.29 4.12001C11.1973 4.02749 11.1237 3.9176 11.0736 3.79663C11.0234 3.67566 10.9976 3.54597 10.9976 3.41501C10.9976 3.28404 11.0234 3.15436 11.0736 3.03338C11.1237 2.91241 11.1973 2.80252 11.29 2.71001Z" fill="#DA498C"/>
</svg>
