<svg width="19" height="19" viewBox="0 0 19 19" fill="none" xmlns="http://www.w3.org/2000/svg">
<path d="M18.9905 4.96595C18.9994 4.48199 18.8813 3.35232 17.5465 2.9594L4.1479 0C3.16568 0 2.36743 0.880812 2.36743 1.96464V4.59856L1.77394 4.59725C0.795277 4.60183 0 5.48003 0 6.56123V17.0354C0 18.1185 0.798245 19 1.78047 19H17.2195C18.2012 19 19 18.1185 19 17.0354L18.9905 4.96595ZM3.55501 1.96398C3.55501 1.62213 3.79359 1.34054 4.09686 1.31172L17.191 4.23576C17.1958 4.23838 17.0937 4.60249 16.6183 4.59594H3.55501V1.96398ZM17.8148 17.0347C17.8148 17.3962 17.5489 17.6896 17.2213 17.6896H1.78166C1.45405 17.6896 1.18817 17.3962 1.18817 17.0347V6.55992C1.18817 6.19843 1.45405 5.90504 1.78166 5.90504H16.6201C17.2029 5.90504 17.8142 5.68566 17.8142 5.25278L17.8148 17.0347ZM3.56332 10.4918C2.9081 10.4918 2.37634 11.0779 2.37634 11.8016C2.37634 12.5252 2.9081 13.1113 3.56332 13.1113C4.21853 13.1113 4.7503 12.5252 4.7503 11.8016C4.7503 11.0779 4.21853 10.4918 3.56332 10.4918Z" fill="#434C6D"/>
</svg>
