<svg width="20" height="20" viewBox="0 0 20 20" fill="none" xmlns="http://www.w3.org/2000/svg">
<path d="M16.838 6.67448L12.6714 2.50781M16.838 6.67448L11.6313 11.8811C10.9451 12.5673 10.1123 13.109 9.15615 13.2739C8.19073 13.4404 6.99265 13.4958 6.42129 12.9245C5.84995 12.3531 5.90537 11.155 6.07188 10.1896C6.23678 9.23344 6.77849 8.40063 7.46458 7.71448L12.6714 2.50781M16.838 6.67448C16.838 6.67448 19.9629 3.54948 17.8796 1.46615C15.7963 -0.617188 12.6714 2.50781 12.6714 2.50781M18.4583 9.60417C18.4583 16.375 16.375 18.4583 9.60417 18.4583C2.83333 18.4583 0.75 16.375 0.75 9.60417C0.75 2.83333 2.83333 0.75 9.60417 0.75" stroke="#434C6D" stroke-width="1.5" stroke-linecap="round" stroke-linejoin="round"/>
</svg>
