<svg width="20" height="20" viewBox="0 0 20 20" fill="none" xmlns="http://www.w3.org/2000/svg">
<path fill-rule="evenodd" clip-rule="evenodd" d="M2.82868 2.81891C6.62402 -0.971069 12.7937 -0.930769 16.6122 2.88778C20.4324 6.70797 20.4711 12.8813 16.6762 16.6762C12.8812 20.4711 6.70793 20.4324 2.88774 16.6122C0.623889 14.3484 -0.310961 11.2599 0.0904694 8.3312C0.146719 7.9208 0.524999 7.63377 0.935369 7.69002C1.34575 7.74627 1.63282 8.1245 1.57658 8.5349C1.2366 11.0152 2.02782 13.631 3.9484 15.5516C7.19288 18.7961 12.4164 18.8146 15.6155 15.6155C18.8146 12.4164 18.796 7.19292 15.5515 3.94844C12.3087 0.705611 7.08889 0.68539 3.88935 3.87957L4.63705 3.88333C5.05126 3.88541 5.38535 4.22288 5.38327 4.63709C5.38119 5.0513 5.04372 5.38539 4.62951 5.38331L2.08396 5.37052C1.67269 5.36845 1.33981 5.03556 1.33774 4.6243L1.32495 2.07874C1.32286 1.66454 1.65696 1.32707 2.07117 1.32498C2.48538 1.3229 2.82285 1.657 2.82493 2.07121L2.82868 2.81891ZM9.7499 4.99992C10.1641 4.99992 10.4999 5.33571 10.4999 5.74992V9.4393L12.7802 11.7196C13.0731 12.0125 13.0731 12.4874 12.7802 12.7802C12.4873 13.0731 12.0124 13.0731 11.7196 12.7802L8.9999 10.0606V5.74992C8.9999 5.33571 9.3357 4.99992 9.7499 4.99992Z" fill="#434C6D"/>
</svg>
