<svg width="24" height="24" viewBox="0 0 24 24" fill="none" xmlns="http://www.w3.org/2000/svg">
<g opacity="0.5">
<path fill-rule="evenodd" clip-rule="evenodd" d="M16.5 7.063C16.5 10.258 14.57 13 12 13C9.42797 13 7.49997 10.258 7.49997 7.062C7.49997 3.868 9.15997 2 12 2C14.84 2 16.5 3.867 16.5 7.063ZM4.10197 20.142C4.48697 20.6 6.14497 22 12 22C17.855 22 19.512 20.6 19.898 20.143C19.9338 20.0991 19.9602 20.0483 19.9757 19.9938C19.9912 19.9393 19.9954 19.8822 19.988 19.826C19.9 18.944 19.106 15 12 15C4.89397 15 4.09997 18.944 4.01097 19.826C4.00373 19.8823 4.00807 19.9394 4.02372 19.9939C4.03937 20.0484 4.066 20.0982 4.10197 20.142Z" fill="#8E8EA9"/>
</g>
</svg>
